<?xml version="1.0" encoding="UTF-8" standalone="no"?>
<!-- Uploaded to: SVG Repo, www.svgrepo.com, Generator: SVG Repo Mixer Tools -->

<svg
   width="800px"
   height="800px"
   viewBox="0 0 70 70"
   version="1.1"
   id="svg6"
   sodipodi:docname="github-code-source-svgrepo-com.svg"
   inkscape:version="1.1.2 (b8e25be833, 2022-02-05)"
   xmlns:inkscape="http://www.inkscape.org/namespaces/inkscape"
   xmlns:sodipodi="http://sodipodi.sourceforge.net/DTD/sodipodi-0.dtd"
   xmlns="http://www.w3.org/2000/svg"
   xmlns:svg="http://www.w3.org/2000/svg"
   xmlns:rdf="http://www.w3.org/1999/02/22-rdf-syntax-ns#"
   xmlns:cc="http://creativecommons.org/ns#"
   xmlns:dc="http://purl.org/dc/elements/1.1/">
  <defs
     id="defs10" />
  <sodipodi:namedview
     id="namedview8"
     pagecolor="#ffffff"
     bordercolor="#666666"
     borderopacity="1.0"
     inkscape:pageshadow="2"
     inkscape:pageopacity="0.0"
     inkscape:pagecheckerboard="0"
     showgrid="false"
     inkscape:zoom="0.69875"
     inkscape:cx="400"
     inkscape:cy="400"
     inkscape:window-width="1366"
     inkscape:window-height="740"
     inkscape:window-x="-8"
     inkscape:window-y="-8"
     inkscape:window-maximized="1"
     inkscape:current-layer="svg6" />
  <metadata
     id="metadata2">
    <rdf:RDF>
      <cc:Work>
        <dc:subject>
                    Code
                </dc:subject>
        <dc:identifier>
                    github-code-source
                </dc:identifier>
        <dc:title>
                    GitHub (Code Source)
                </dc:title>
        <dc:format>
                    image/svg+xml
                </dc:format>
        <dc:publisher>
                    Amido Limited
                </dc:publisher>
        <dc:creator>
                    Richard Slater
                </dc:creator>
        <dc:type
           rdf:resource="http://purl.org/dc/dcmitype/StillImage" />
      </cc:Work>
    </rdf:RDF>
  </metadata>
  <path
     d="m -7.9794841,547.19629 c -10.9321299,-1.4285 -20.3690499,-7.7016 -26.0162699,-17.2939 -1.87961,-3.1927 -3.38391,-7.3029 -4.09943,-11.2009 -0.975171,-5.3125 -0.654,-11.178 0.8926,-16.3015 1.2739,-4.2201 3.29627,-8.1193 6.07611,-11.7149 1.16057,-1.5011 4.28357,-4.626 5.78381,-5.7872 5.51609,-4.2697 11.80491,-6.7762 18.5887399,-7.4087 2.14791,-0.2003 6.12932998,-0.094 8.17663,0.218 10.8468601,1.6536 20.1690401,8.1128 25.5689201,17.7162 5.1137,9.0944 5.77487,20.648 1.73715,30.3555 -4.89144,11.7599 -15.5607,19.8508 -28.26166012,21.4318 -1.94022998,0.2415 -6.54817998,0.2337 -8.44659998,-0.014 z m -4.6273999,-12.3355 c 0.40825,-1.1212 1.01503,-2.016 1.96165,-2.8929 l 0.8105899,-0.751 -0.6508899,-0.091 c -3.57335,-0.4987 -7.44137,-1.768 -9.88241,-3.2429 -4.12392,-2.4918 -6.21048,-7.1356 -6.20986,-13.8207 2.8e-4,-2.9091 0.32023,-4.5331 1.26403,-6.4159 0.64702,-1.2907 0.889,-1.6586 1.77393,-2.697 l 0.65984,-0.7743 -0.35393,-1.3545 c -0.60984,-2.3338 -0.50881,-4.5378 0.32489,-7.0884 l 0.34792,-1.0644 0.9083,0 c 2.00247,0 4.50912,0.9411 7.46028,2.7948 l 1.45497,0.9139 1.62413,-0.3968 c 2.6343499,-0.6435 3.9132799,-0.7723 7.5948499,-0.7651 3.60657998,0.01 4.94317,0.1512 7.57782,0.8177 l 1.37004,0.3465 1.32524,-0.8362 c 2.97792,-1.879 5.6007501,-2.8727 7.5880701,-2.8748 l 0.90975,0 0.28631,0.7897 c 0.99828,2.7535 1.08765,5.6558 0.24882,8.0801 l -0.1823,0.5269 0.87914,1.1043 c 0.99959,1.2555 2.10605,3.4201 2.42543,4.7449 0.94486,3.9193 0.33645,9.6525 -1.39175,13.1148 -1.26479,2.5339 -3.03354,4.2403 -5.87856,5.6713 -1.7323801,0.8713 -5.4513101,1.9669 -8.0511701,2.3718 l -1.06002,0.1651 0.56242,0.4454 c 0.70068,0.5547 1.41249,1.4426 1.85641,2.3156 0.58968,1.1596 0.72568,2.2109 0.72828,5.6293 0.002,2.9329 0.0182,3.1331 0.24258,3.0466 0.13211,-0.051 0.7961,-0.287 1.47553,-0.5245 1.63865,-0.573 4.7476601,-2.158 6.4511401,-3.2889 6.27917,-4.1685 10.90321,-10.4468 12.96008,-17.5964 0.88011,-3.0593 1.24615,-5.6472 1.24615,-8.8105 0,-8.8503 -3.39536,-16.8047 -9.81009,-22.9824 -4.74026,-4.5652 -10.7245401,-7.476 -17.43568012,-8.4809 -2.23640998,-0.3349 -6.65652998,-0.3404 -8.85315998,-0.011 -7.0498499,1.0571 -13.0197599,4.0504 -17.9833199,9.0169 -4.92656,4.9295 -7.9245,10.8739 -9.00812,17.8616 -0.33926,2.1877 -0.33926,6.8669 0,9.0546 0.62353,4.0208 2.06834,8.1845 3.95013,11.3835 3.81132,6.4792 9.81888,11.5186 16.56416,13.8949 l 1.46722,0.5169 0.0793,-3.5218 c 0.0705,-3.1291 0.11194,-3.6112 0.37182,-4.3249 z"
     fill="#00bcf2"
     transform="translate(38.649 -477.387)"
     id="path4" />
  <path
     style="fill:#c83737;stroke-width:1.43113"
     d="M 356.73255,797.80615 C 322.31087,794.49792 271.68442,780.48803 236.31319,764.48243 109.02231,706.88292 20.648694,586.66022 3.533929,447.81155 0.57806397,423.83121 0.59504401,377.49514 3.5685868,353.23596 12.421042,281.01461 38.445128,217.04104 83.514878,156.70841 98.003263,137.31353 138.78137,96.873059 158.8551,81.992007 215.26545,40.173898 274.83224,15.197238 344.18605,4.2818121 364.58128,1.0718559 407.1594,0.00521652 433.63148,2.0410832 483.09052,5.8447886 530.8663,19.262772 576.98867,42.30341 c 38.5922,19.278911 69.14858,40.93808 99.77677,70.72441 68.40322,66.52304 107.90542,145.77176 119.64942,240.03894 2.55816,20.53393 2.94623,68.75671 0.71324,88.62997 -6.00175,53.41464 -18.8808,96.14914 -43.01709,142.73679 -52.42816,101.19638 -144.38737,174.0803 -255.90695,202.82367 -34.60983,8.92044 -49.68081,10.79666 -91.04842,11.33485 -20.46512,0.26625 -43.15551,-0.0874 -50.42309,-0.78589 z M 296.17182,667.62423 c 2.17388,-14.26041 9.82039,-28.24107 22.43621,-41.02171 5.88247,-5.95934 10.4629,-11.06768 10.1787,-11.35186 -0.28419,-0.28419 -9.17173,-2.11539 -19.75011,-4.06934 -30.61998,-5.65584 -63.56831,-16.18693 -86.49637,-27.64636 -44.48902,-22.23557 -70.70502,-60.42745 -80.27429,-116.94488 -3.02692,-17.87738 -4.22099,-58.4251 -2.22015,-75.39057 3.09826,-26.27049 13.64052,-51.14544 30.6728,-72.37388 l 10.01427,-12.48142 -3.42547,-13.63722 c -2.95575,-11.7672 -3.41144,-16.87526 -3.32314,-37.25082 0.0979,-22.59087 0.31488,-24.3264 5.00969,-40.07155 l 4.90736,-16.45797 13.59495,0.16995 c 11.58536,0.14483 15.92201,0.94885 29.33736,5.43913 16.71383,5.59432 34.56741,14.52303 56.09619,28.05412 l 13.17391,8.27997 16.16996,-4.12572 c 30.13866,-7.68982 43.76444,-9.09583 87.72631,-9.05234 43.70111,0.0432 57.59,1.46216 87.59013,8.94838 l 16.03377,4.00106 17.59771,-10.6663 c 33.84873,-20.51637 58.254,-29.98193 80.88155,-31.36983 l 13.19439,-0.80932 1.58006,4.14327 c 4.33885,11.37737 8.77058,29.8149 10.21079,42.48034 1.86965,16.44206 0.22205,34.26363 -4.67296,50.54589 l -3.05215,10.15242 10.06996,13.26361 c 12.05972,15.88444 23.50451,38.26918 27.44655,53.68239 10.12444,39.58618 4.91274,100.73138 -12.00349,140.8288 -13.50509,32.01179 -37.7243,56.73411 -71.70994,73.19958 -20.06407,9.7207 -58.68583,21.19834 -88.57416,26.32253 -6.99842,1.19985 -12.9728,2.42993 -13.27639,2.73351 -0.30358,0.3036 4.27677,5.38074 10.17858,11.28254 12.56861,12.56863 19.77431,25.92934 22.06126,40.90579 0.80517,5.27265 1.85354,25.01893 2.32975,43.88058 0.47621,18.86167 1.17723,34.60534 1.55784,34.98595 1.27161,1.2716 24.02932,-6.90797 41.04628,-14.75282 51.01871,-23.51975 90.53367,-52.88561 125.46341,-93.23912 C 746.93909,553.89179 776.4623,445.76756 756.97151,334.16816 744.40627,262.22275 710.00107,197.03927 656.14716,143.14816 603.46281,90.427402 539.78198,57.18613 463.80199,42.744341 447.57757,39.660509 438.77155,38.925931 410.52392,38.300009 372.82137,37.464581 354.01362,38.876082 327.06836,44.56326 256.89171,59.375034 199.76323,89.709052 148.4453,139.40834 116.02926,170.80192 93.342964,201.72736 74.338275,240.42934 45.950659,298.23911 34.214367,358.73687 38.454318,425.4025 45.584037,537.50457 105.06358,639.5839 200.3766,703.29503 c 24.66578,16.48761 60.74507,33.96797 87.99549,42.63366 l 4.29338,1.36529 1.04441,-35.18544 c 0.57443,-19.352 1.68229,-39.36995 2.46194,-44.48431 z"
     id="path67"
     transform="scale(0.0875)" />
</svg>
