<?xml version="1.0" encoding="UTF-8" standalone="no"?>
<!-- Uploaded to: SVG Repo, www.svgrepo.com, Generator: SVG Repo Mixer Tools -->

<svg
   width="800px"
   height="800px"
   viewBox="126.444 2.281 589 589"
   version="1.1"
   id="svg6"
   sodipodi:docname="twitter-3-logo-svgrepo-com.svg"
   inkscape:version="1.1.2 (b8e25be833, 2022-02-05)"
   xmlns:inkscape="http://www.inkscape.org/namespaces/inkscape"
   xmlns:sodipodi="http://sodipodi.sourceforge.net/DTD/sodipodi-0.dtd"
   xmlns="http://www.w3.org/2000/svg"
   xmlns:svg="http://www.w3.org/2000/svg">
  <defs
     id="defs10" />
  <sodipodi:namedview
     id="namedview8"
     pagecolor="#ffffff"
     bordercolor="#666666"
     borderopacity="1.0"
     inkscape:pageshadow="2"
     inkscape:pageopacity="0.0"
     inkscape:pagecheckerboard="0"
     showgrid="false"
     inkscape:zoom="0.69875"
     inkscape:cx="400"
     inkscape:cy="400"
     inkscape:window-width="1366"
     inkscape:window-height="740"
     inkscape:window-x="-8"
     inkscape:window-y="-8"
     inkscape:window-maximized="1"
     inkscape:current-layer="svg6" />
  <circle
     cx="420.944"
     cy="296.781"
     r="294.5"
     fill="#2daae1"
     id="circle2" />
  <path
     d="M609.773 179.634c-13.891 6.164-28.811 10.331-44.498 12.204 16.01-9.587 28.275-24.779 34.066-42.86a154.78 154.78 0 0 1-49.209 18.801c-14.125-15.056-34.267-24.456-56.551-24.456-42.773 0-77.462 34.675-77.462 77.473 0 6.064.683 11.98 1.996 17.66-64.389-3.236-121.474-34.079-159.684-80.945-6.672 11.446-10.491 24.754-10.491 38.953 0 26.875 13.679 50.587 34.464 64.477a77.122 77.122 0 0 1-35.097-9.686v.979c0 37.54 26.701 68.842 62.145 75.961-6.511 1.784-13.344 2.716-20.413 2.716-4.998 0-9.847-.473-14.584-1.364 9.859 30.769 38.471 53.166 72.363 53.799-26.515 20.785-59.925 33.175-96.212 33.175-6.25 0-12.427-.373-18.491-1.104 34.291 21.988 75.006 34.824 118.759 34.824 142.496 0 220.428-118.052 220.428-220.428 0-3.361-.074-6.697-.236-10.021a157.855 157.855 0 0 0 38.707-40.158z"
     fill="#ffffff"
     id="path4" />
  <path
     style="fill:#c83737;stroke-width:1.43113"
     d="M 371.37746,798.44328 C 325.16611,793.86237 291.56305,786.11764 253.63053,771.30535 180.73441,742.84011 114.74457,689.9432 69.828801,623.97138 -13.613298,501.41249 -21.894469,342.52289 48.309893,211.09123 79.367466,152.94743 130.92713,97.838234 188.1932,61.577903 c 7.08408,-4.485571 23.82827,-13.526916 37.2093,-20.091878 38.13317,-18.708771 74.52869,-30.107268 117.35242,-36.7529071 28.97096,-4.49588534 85.5192,-4.49588534 114.49016,0 68.30466,10.5999181 131.714,37.4255911 185.7104,78.5658091 19.0075,14.481936 49.56234,44.209303 65.89163,64.107153 54.04232,65.85261 85.74094,147.847 89.49089,231.4848 2.42483,54.08297 -4.15088,101.77999 -20.71868,150.28309 -20.62311,60.37524 -53.31044,111.51082 -100.86897,157.79797 -31.56475,30.72093 -61.07655,51.38931 -102.15285,71.54203 -37.71935,18.50575 -75.63909,30.36464 -117.11719,36.62685 -18.03104,2.72225 -71.33259,4.76661 -86.10285,3.30246 z M 337.95213,607.44993 c 89.56936,-9.03271 165.25865,-54.64807 215.3046,-129.75675 20.47973,-30.73584 38.11599,-73.55764 45.55466,-110.6091 3.80637,-18.9593 7.02609,-51.65776 6.28442,-63.82267 l -0.44465,-7.29314 10.90861,-8.77627 c 5.99973,-4.82695 14.56683,-12.7276 19.038,-17.55698 8.71751,-9.41596 22.28953,-26.80023 22.28953,-28.55045 0,-0.58554 -4.99106,0.87574 -11.09124,3.24729 -11.85724,4.60969 -36.10636,11.07946 -41.63119,11.10738 -2.87401,0.0146 -2.35696,-0.76687 3.64857,-5.51397 11.53647,-9.11906 21.67555,-21.62699 28.40698,-35.04391 3.49559,-6.96731 6.35561,-13.55619 6.35561,-14.64198 0,-1.36619 -2.75449,-0.46571 -8.94455,2.9241 -11.68805,6.40063 -27.43383,12.62954 -43.77401,17.31668 l -13.16602,3.77663 -5.39628,-4.87521 C 520.77032,173.7354 442.6213,184.87041 407.58271,242.70804 c -9.43078,15.56725 -16.5441,43.97899 -14.72227,58.80316 0.32106,2.61249 0.93086,7.89213 1.35512,11.73255 l 0.77137,6.98257 -10.37361,-0.97078 C 308.26424,312.11068 236.05787,275.03751 185.63166,217.09168 l -6.60962,-7.59525 -3.5045,6.91579 c -7.85194,15.49506 -10.22545,26.76451 -10.18244,48.34628 0.0373,18.71696 0.33261,20.86109 4.48621,32.57418 6.15671,17.36182 12.1783,26.91694 25.66157,40.72006 10.57967,10.83062 11.25658,11.85781 7.81409,11.85781 -5.61465,0 -19.27253,-3.83112 -30.55044,-8.56958 l -9.98135,-4.19372 0.95761,9.60169 c 2.30884,23.15011 9.80651,42.02318 23.58021,59.35595 12.55515,15.79932 28.00648,26.51051 48.83296,33.85203 11.03709,3.89068 6.90739,5.13642 -16.81575,5.07248 -10.42933,-0.0281 -18.96243,0.2642 -18.96243,0.64956 0,0.38537 2.98075,6.82795 6.62387,14.31683 5.64424,11.60239 8.55454,15.5363 19.678,26.59919 9.85876,9.80505 15.86619,14.43496 24.54231,18.91466 13.08419,6.75571 29.78796,11.81553 39.28806,11.90094 l 6.46884,0.0581 -4.5279,3.87744 c -7.28411,6.23768 -26.24785,17.18225 -40.17734,23.18758 -28.92754,12.47134 -57.66988,17.90518 -89.38543,16.89864 -10.78026,-0.34212 -19.28951,-0.11892 -18.90944,0.49608 1.61413,2.61173 30.12883,17.58342 45.82451,24.06025 26.32319,10.86226 55.00593,18.32805 82.13087,21.37771 15.66807,1.76158 48.98042,1.80368 66.038,0.0834 z"
     id="path67"
     transform="matrix(0.73625,0,0,0.73625,126.444,2.281)" />
</svg>
